<svg id="202:59" layer-name="codicon:debug-alt" width="45" height="45" viewBox="0 0 45 45" fill="none" xmlns="http://www.w3.org/2000/svg" class="w-[45px] h-[45px]"> <path d="M20.5125 25.3125L18.0375 27.7875C17.6611 26.272 16.7883 24.9261 15.5582 23.9642C14.3281 23.0023 12.8115 22.4797 11.25 22.4797C9.68847 22.4797 8.17186 23.0023 6.94178 23.9642C5.7117 24.9261 4.83893 26.272 4.4625 27.7875L1.9875 25.3125L0 27.3L3.225 30.525L2.8125 30.9375V33.75H0V36.5625H2.8125V36.7125C2.95687 37.6294 3.21375 38.5238 3.58125 39.375L0 43.0125L1.9875 45L5.08125 41.9063C5.81642 42.8463 6.75112 43.6115 7.81789 44.1465C8.88466 44.6815 10.0569 44.973 11.25 45C12.4429 44.9717 13.6146 44.6796 14.6812 44.1447C15.7478 43.6098 16.6827 42.8454 17.4187 41.9063L20.5125 45L22.5 43.0125L18.9188 39.375C19.29 38.505 19.5487 37.5919 19.6875 36.6562V36.4688H22.5V33.75H19.6875V30.9375L19.275 30.525L22.5 27.3L20.5125 25.3125ZM11.25 25.3125C12.3689 25.3125 13.4419 25.757 14.2331 26.5481C15.0243 27.3393 15.4688 28.4124 15.4688 29.5312H7.03125C7.03125 28.4124 7.47572 27.3393 8.26689 26.5481C9.05806 25.757 10.1311 25.3125 11.25 25.3125ZM16.875 36.5625C16.7376 38.0078 16.1009 39.3601 15.0743 40.3868C14.0476 41.4134 12.6953 42.0501 11.25 42.1875C9.80466 42.0501 8.45236 41.4134 7.42574 40.3868C6.39912 39.3601 5.76236 38.0078 5.625 36.5625V32.3438H16.875V36.5625ZM44.55 18V20.3625L25.3125 32.5688V29.25L41.25 19.1812L16.875 3.75V21.4875C16.0195 20.8836 15.0688 20.4273 14.0625 20.1375V1.18125L16.2 0L44.55 18Z" fill="black"></path> </svg>