<svg id="202:45" layer-name="lucide:files" width="45" height="45" viewBox="0 0 45 45" fill="none" xmlns="http://www.w3.org/2000/svg" class="w-[45px] h-[45px]"> <path d="M37.5 13.125H31.875C30.8804 13.125 29.9266 12.7299 29.2234 12.0267C28.5201 11.3234 28.125 10.3696 28.125 9.375V3.75" stroke="black" stroke-width="2" stroke-linecap="round" stroke-linejoin="round"></path> <path d="M16.875 33.75C15.8804 33.75 14.9266 33.3549 14.2233 32.6516C13.5201 31.9484 13.125 30.9946 13.125 30V7.5C13.125 6.50544 13.5201 5.55161 14.2233 4.84835C14.9266 4.14509 15.8804 3.75 16.875 3.75H30L37.5 11.25V30C37.5 30.9946 37.1049 31.9484 36.4016 32.6516C35.6984 33.3549 34.7446 33.75 33.75 33.75H16.875Z" stroke="black" stroke-width="2" stroke-linecap="round" stroke-linejoin="round"></path> <path d="M5.625 14.25V38.25C5.625 39.0456 5.94107 39.8087 6.50368 40.3713C7.06629 40.9339 7.82935 41.25 8.625 41.25H27" stroke="black" stroke-width="2" stroke-linecap="round" stroke-linejoin="round"></path> </svg>