<svg id="202:53" layer-name="iconoir:git-fork" width="60" height="60" viewBox="0 0 60 60" fill="none" xmlns="http://www.w3.org/2000/svg" class="w-[60px] h-[60px]"> <path d="M42.5 17.5C43.8261 17.5 45.0979 16.9732 46.0355 16.0355C46.9732 15.0979 47.5 13.8261 47.5 12.5C47.5 11.1739 46.9732 9.90215 46.0355 8.96447C45.0979 8.02678 43.8261 7.5 42.5 7.5C41.1739 7.5 39.9021 8.02678 38.9645 8.96447C38.0268 9.90215 37.5 11.1739 37.5 12.5C37.5 13.8261 38.0268 15.0979 38.9645 16.0355C39.9021 16.9732 41.1739 17.5 42.5 17.5ZM42.5 17.5V20C42.5 26.25 37.5 27.5 37.5 27.5L22.5 32.5C22.5 32.5 17.5 33.75 17.5 40V42.5M17.5 17.5C18.8261 17.5 20.0979 16.9732 21.0355 16.0355C21.9732 15.0979 22.5 13.8261 22.5 12.5C22.5 11.1739 21.9732 9.90215 21.0355 8.96447C20.0979 8.02678 18.8261 7.5 17.5 7.5C16.1739 7.5 14.9021 8.02678 13.9645 8.96447C13.0268 9.90215 12.5 11.1739 12.5 12.5C12.5 13.8261 13.0268 15.0979 13.9645 16.0355C14.9021 16.9732 16.1739 17.5 17.5 17.5ZM17.5 17.5V42.5M17.5 42.5C18.8261 42.5 20.0979 43.0268 21.0355 43.9645C21.9732 44.9021 22.5 46.1739 22.5 47.5C22.5 48.8261 21.9732 50.0979 21.0355 51.0355C20.0979 51.9732 18.8261 52.5 17.5 52.5C16.1739 52.5 14.9021 51.9732 13.9645 51.0355C13.0268 50.0979 12.5 48.8261 12.5 47.5C12.5 46.1739 13.0268 44.9021 13.9645 43.9645C14.9021 43.0268 16.1739 42.5 17.5 42.5Z" stroke="black" stroke-width="3" stroke-linecap="round" stroke-linejoin="round"></path> </svg>
  