<svg id="202:68" layer-name="simple-line-icons:magnifier" width="46" height="45" viewBox="0 0 46 45" fill="none" xmlns="http://www.w3.org/2000/svg" class="w-[45px] h-[45px]"> <path d="M45.5887 42.5848L31.9248 28.8372C34.4715 25.7871 36.0064 21.8629 36.0064 17.5781C36.0064 7.87003 28.1363 -4.57764e-05 18.4283 -4.57764e-05C8.72023 -4.57764e-05 0.850147 7.87003 0.850147 17.5781C0.850147 27.2861 8.72023 35.1562 18.4283 35.1562C22.839 35.1562 26.8679 33.5278 29.9546 30.8432L43.5994 44.5739C44.1486 45.123 45.0395 45.123 45.5886 44.5739C46.1371 44.0247 46.1371 43.1346 45.5886 42.5848H45.5887ZM18.4283 32.3669C10.2608 32.3669 3.63944 25.7456 3.63944 17.5781C3.63944 9.41058 10.2608 2.78925 18.4283 2.78925C26.5958 2.78925 33.2171 9.41058 33.2171 17.5781C33.2171 25.7456 26.5958 32.3669 18.4283 32.3669Z" fill="black"></path> </svg>