<svg id="202:65" layer-name="codicon:account" width="45" height="45" viewBox="0 0 45 45" fill="none" xmlns="http://www.w3.org/2000/svg" class="w-[45px] h-[45px] mt-auto mb-[37px]"> <path d="M45 22.4775C45 10.0687 34.92 0 22.5 0C10.08 0 0 10.0687 0 22.4775C0 29.3119 3.105 35.4712 7.965 39.6056C8.01 39.6506 8.055 39.6506 8.055 39.6956C8.46 40.0106 8.865 40.3256 9.315 40.6406C9.54 40.7756 9.72 40.9528 9.945 41.1328C13.6648 43.6507 18.0531 44.9976 22.545 45C27.0369 44.9976 31.4252 43.6507 35.145 41.1328C35.37 40.9978 35.55 40.8206 35.775 40.6828C36.18 40.3706 36.63 40.0556 37.035 39.7406C37.08 39.6956 37.125 39.6956 37.125 39.6506C41.895 35.4684 45 29.3119 45 22.4775ZM22.5 42.1678C18.27 42.1678 14.4 40.8178 11.205 38.5706C11.25 38.2106 11.34 37.8534 11.43 37.4934C11.699 36.5181 12.0922 35.5814 12.6 34.7063C13.095 33.8513 13.68 33.0863 14.4 32.4113C15.075 31.7363 15.885 31.1091 16.695 30.6141C17.55 30.1191 18.45 29.7591 19.44 29.4891C20.438 29.2218 21.4668 29.0865 22.5 29.0869C25.5677 29.0637 28.523 30.2405 30.735 32.3663C31.77 33.4013 32.58 34.6153 33.165 36.0084C33.48 36.8184 33.705 37.6725 33.84 38.5706C30.5189 40.9054 26.5597 42.1614 22.5 42.1678ZM15.615 21.3553C15.2193 20.4472 15.02 19.4658 15.03 18.4753C15.03 17.4881 15.21 16.4981 15.615 15.5981C16.02 14.6981 16.56 13.8909 17.235 13.2159C17.91 12.5409 18.72 12.0038 19.62 11.5988C20.52 11.1938 21.51 11.0137 22.5 11.0137C23.535 11.0137 24.48 11.1938 25.38 11.5988C26.28 12.0038 27.09 12.5437 27.765 13.2159C28.44 13.8909 28.98 14.7009 29.385 15.5981C29.79 16.4981 29.97 17.4881 29.97 18.4753C29.97 19.5103 29.79 20.4553 29.385 21.3525C28.9964 22.2404 28.4472 23.049 27.765 23.7375C27.0762 24.4187 26.2677 24.9669 25.38 25.3547C23.5202 26.1174 21.4348 26.1174 19.575 25.3547C18.6873 24.9669 17.8788 24.4187 17.19 23.7375C16.5073 23.0587 15.9712 22.2498 15.615 21.3553ZM36.495 36.2784C36.495 36.1884 36.45 36.1434 36.45 36.0534C36.0082 34.6452 35.3558 33.312 34.515 32.0991C33.6735 30.8772 32.6402 29.7993 31.455 28.9069C30.5495 28.2255 29.568 27.6516 28.53 27.1969C29 26.8824 29.4372 26.5216 29.835 26.1197C30.5059 25.4574 31.0951 24.7171 31.59 23.9147C32.59 22.2787 33.105 20.3925 33.075 18.4753C33.0897 17.0564 32.8141 15.6494 32.265 14.3409C31.7236 13.08 30.9444 11.935 29.97 10.9688C28.9947 10.0155 27.8501 9.25241 26.595 8.71875C25.2846 8.1699 23.8756 7.89519 22.455 7.91156C21.0342 7.89608 19.6252 8.17175 18.315 8.72156C17.0461 9.24871 15.8978 10.0286 14.94 11.0137C13.9817 11.984 13.218 13.1286 12.69 14.3859C12.1409 15.6944 11.8653 17.1014 11.88 18.5203C11.88 19.5103 12.015 20.4544 12.285 21.3525C12.555 22.2975 12.915 23.1525 13.41 23.9597C13.86 24.7697 14.49 25.4897 15.165 26.1647C15.57 26.5697 16.02 26.9287 16.515 27.2419C15.4724 27.706 14.4902 28.2954 13.59 28.9969C12.42 29.8969 11.385 30.9741 10.53 32.1441C9.68139 33.3524 9.02839 34.6869 8.595 36.0984C8.55 36.1884 8.55 36.2784 8.55 36.3234C4.995 32.7262 2.79 27.8719 2.79 22.4775C2.79 11.6438 11.655 2.78719 22.5 2.78719C33.345 2.78719 42.21 11.6438 42.21 22.4775C42.2041 27.6524 40.1493 32.6144 36.495 36.2784Z" fill="black"></path> </svg>