<svg id="202:62" layer-name="weui:setting-outlined" width="47" height="50" viewBox="0 0 47 50" fill="none" xmlns="http://www.w3.org/2000/svg" class="w-[45px] h-[45px]"> <g filter="url(#filter0_d_202_62)"> <mask id="path-1-inside-1_202_62" fill="white"> <path fill-rule="evenodd" clip-rule="evenodd" d="M24.5556 6H22.4444L21.235 10.8337L20.0219 11.2088C19.315 11.4266 18.6301 11.7103 17.9762 12.0562L16.8531 12.6506L12.5781 10.0856L11.0856 11.58L13.6506 15.855L13.0562 16.9762C12.7097 17.63 12.4253 18.3149 12.2069 19.0219L11.8337 20.235L7 21.4444V23.5556L11.8337 24.765L12.2088 25.9781C12.425 26.6881 12.7075 27.37 13.0562 28.0238L13.6506 29.1469L11.0856 33.4219L12.58 34.9144L16.855 32.3494L17.9762 32.9437C18.63 33.2912 19.3119 33.5744 20.0219 33.7931L21.235 34.1663L22.4444 39H24.5556L25.765 34.1663L26.9781 33.7912C27.685 33.5734 28.3699 33.2897 29.0238 32.9437L30.1469 32.3494L34.4219 34.9144L35.9144 33.42L33.3494 29.145L33.9437 28.0238C34.2912 27.37 34.5744 26.6881 34.7931 25.9781L35.1663 24.765L40 23.5556V21.4444L35.1663 20.235L34.7912 19.0219C34.5734 18.315 34.2897 17.6301 33.9437 16.9762L33.3494 15.8531L35.9144 11.5781L34.42 10.0856L30.145 12.6506L29.0238 12.0562C28.37 11.7097 27.6851 11.4253 26.9781 11.2069L25.765 10.8337L24.5556 6ZM30.0775 10.0687L33.5144 8.00625C33.8727 7.7913 34.2927 7.70224 34.7074 7.75319C35.1222 7.80415 35.5081 7.9922 35.8038 8.2875L37.7125 10.1963C38.0078 10.4919 38.1959 10.8778 38.2468 11.2926C38.2978 11.7073 38.2087 12.1273 37.9937 12.4856L35.9312 15.9225C36.3437 16.6975 36.6812 17.51 36.9437 18.36L40.8306 19.3331C41.2361 19.4347 41.596 19.6688 41.8531 19.9984C42.1103 20.3279 42.25 20.7339 42.25 21.1519V23.8481C42.25 24.2661 42.1103 24.6721 41.8531 25.0016C41.596 25.3312 41.2361 25.5653 40.8306 25.6669L36.9437 26.64C36.6812 27.49 36.3437 28.3025 35.9312 29.0775L37.9937 32.5144C38.2087 32.8727 38.2978 33.2927 38.2468 33.7074C38.1959 34.1222 38.0078 34.5081 37.7125 34.8038L35.8038 36.7125C35.5081 37.0078 35.1222 37.1959 34.7074 37.2468C34.2927 37.2978 33.8727 37.2087 33.5144 36.9937L30.0775 34.9312C29.3025 35.3437 28.49 35.6812 27.64 35.9437L26.6669 39.8306C26.5653 40.2361 26.3312 40.596 26.0016 40.8531C25.6721 41.1103 25.2661 41.25 24.8481 41.25H22.1519C21.7339 41.25 21.3279 41.1103 20.9984 40.8531C20.6688 40.596 20.4347 40.2361 20.3331 39.8306L19.36 35.9437C18.5176 35.6834 17.7015 35.3444 16.9225 34.9312L13.4856 36.9937C13.1273 37.2087 12.7073 37.2978 12.2926 37.2468C11.8778 37.1959 11.4919 37.0078 11.1963 36.7125L9.2875 34.8038C8.9922 34.5081 8.80415 34.1222 8.75319 33.7074C8.70224 33.2927 8.7913 32.8727 9.00625 32.5144L11.0687 29.0775C10.6556 28.2985 10.3166 27.4824 10.0562 26.64L6.16937 25.6669C5.76422 25.5654 5.40456 25.3315 5.14743 25.0024C4.8903 24.6732 4.75043 24.2677 4.75 23.85V21.1537C4.75001 20.7358 4.88969 20.3298 5.14685 20.0002C5.40402 19.6707 5.76391 19.4366 6.16937 19.335L10.0562 18.3619C10.3187 17.5119 10.6562 16.6994 11.0687 15.9244L9.00625 12.4875C8.7913 12.1291 8.70224 11.7092 8.75319 11.2944C8.80415 10.8797 8.9922 10.4938 9.2875 10.1981L11.1963 8.2875C11.4919 7.9922 11.8778 7.80415 12.2926 7.75319C12.7073 7.70224 13.1273 7.7913 13.4856 8.00625L16.9225 10.0687C17.6975 9.65625 18.51 9.31875 19.36 9.05625L20.3331 5.16937C20.4346 4.76422 20.6685 4.40456 20.9976 4.14743C21.3268 3.8903 21.7323 3.75043 22.15 3.75H24.8463C25.2642 3.75001 25.6702 3.88969 25.9998 4.14685C26.3293 4.40402 26.5634 4.76391 26.665 5.16937L27.6381 9.05625C28.4881 9.31875 29.3006 9.65625 30.0756 10.0687H30.0775ZM23.5 27.75C24.8924 27.75 26.2277 27.1969 27.2123 26.2123C28.1969 25.2277 28.75 23.8924 28.75 22.5C28.75 21.1076 28.1969 19.7723 27.2123 18.7877C26.2277 17.8031 24.8924 17.25 23.5 17.25C22.1076 17.25 20.7723 17.8031 19.7877 18.7877C18.8031 19.7723 18.25 21.1076 18.25 22.5C18.25 23.8924 18.8031 25.2277 19.7877 26.2123C20.7723 27.1969 22.1076 27.75 23.5 27.75ZM23.5 30C21.5109 30 19.6032 29.2098 18.1967 27.8033C16.7902 26.3968 16 24.4891 16 22.5C16 20.5109 16.7902 18.6032 18.1967 17.1967C19.6032 15.7902 21.5109 15 23.5 15C25.4891 15 27.3968 15.7902 28.8033 17.1967C30.2098 18.6032 31 20.5109 31 22.5C31 24.4891 30.2098 26.3968 28.8033 27.8033C27.3968 29.2098 25.4891 30 23.5 30Z"></path> </mask>  <path fill-rule="evenodd" clip-rule="evenodd" d="M24.5556 6H22.4444L21.235 10.8337L20.0219 11.2088C19.315 11.4266 18.6301 11.7103 17.9762 12.0562L16.8531 12.6506L12.5781 10.0856L11.0856 11.58L13.6506 15.855L13.0562 16.9762C12.7097 17.63 12.4253 18.3149 12.2069 19.0219L11.8337 20.235L7 21.4444V23.5556L11.8337 24.765L12.2088 25.9781C12.425 26.6881 12.7075 27.37 13.0562 28.0238L13.6506 29.1469L11.0856 33.4219L12.58 34.9144L16.855 32.3494L17.9762 32.9437C18.63 33.2912 19.3119 33.5744 20.0219 33.7931L21.235 34.1663L22.4444 39H24.5556L25.765 34.1663L26.9781 33.7912C27.685 33.5734 28.3699 33.2897 29.0238 32.9437L30.1469 32.3494L34.4219 34.9144L35.9144 33.42L33.3494 29.145L33.9437 28.0238C34.2912 27.37 34.5744 26.6881 34.7931 25.9781L35.1663 24.765L40 23.5556V21.4444L35.1663 20.235L34.7912 19.0219C34.5734 18.315 34.2897 17.6301 33.9437 16.9762L33.3494 15.8531L35.9144 11.5781L34.42 10.0856L30.145 12.6506L29.0238 12.0562C28.37 11.7097 27.6851 11.4253 26.9781 11.2069L25.765 10.8337L24.5556 6Z" fill="black"></path> </g> <defs> <filter id="filter0_d_202_62" x="0.75" y="3.75" width="45.5" height="45.5" filterUnits="userSpaceOnUse" color-interpolation-filters="sRGB"> <feFlood flood-opacity="0" result="BackgroundImageFix"></feFlood> <feColorMatrix in="SourceAlpha" type="matrix" values="0 0 0 0 0 0 0 0 0 0 0 0 0 0 0 0 0 0 127 0" result="hardAlpha"></feColorMatrix> <feOffset dy="4"></feOffset> <feGaussianBlur stdDeviation="2"></feGaussianBlur> <feComposite in2="hardAlpha" operator="out"></feComposite> <feColorMatrix type="matrix" values="0 0 0 0 0 0 0 0 0 0 0 0 0 0 0 0 0 0 0.25 0"></feColorMatrix> <feBlend mode="normal" in2="BackgroundImageFix" result="effect1_dropShadow_202_62"></feBlend> <feBlend mode="normal" in="SourceGraphic" in2="effect1_dropShadow_202_62" result="shape"></feBlend> </filter> </defs> </svg>